<svg width="68" height="90" viewBox="0 0 68 90" fill="none" xmlns="http://www.w3.org/2000/svg">
<path fill-rule="evenodd" clip-rule="evenodd" d="M56.5 5.625H11.5C10.0082 5.625 8.57742 6.21763 7.52252 7.27252C6.46763 8.32742 5.875 9.75816 5.875 11.25V78.75C5.875 80.2418 6.46763 81.6726 7.52252 82.7275C8.57742 83.7824 10.0082 84.375 11.5 84.375H56.5C57.9918 84.375 59.4226 83.7824 60.4775 82.7275C61.5324 81.6726 62.125 80.2418 62.125 78.75V11.25C62.125 9.75816 61.5324 8.32742 60.4775 7.27252C59.4226 6.21763 57.9918 5.625 56.5 5.625ZM11.5 0C8.51631 0 5.65483 1.18526 3.54505 3.29505C1.43526 5.40483 0.25 8.26631 0.25 11.25V78.75C0.25 81.7337 1.43526 84.5952 3.54505 86.7049C5.65483 88.8147 8.51631 90 11.5 90H56.5C59.4837 90 62.3452 88.8147 64.4549 86.7049C66.5647 84.5952 67.75 81.7337 67.75 78.75V11.25C67.75 8.26631 66.5647 5.40483 64.4549 3.29505C62.3452 1.18526 59.4837 0 56.5 0L11.5 0Z" fill="#FF7D05"/>
<path fill-rule="evenodd" clip-rule="evenodd" d="M50.875 16.875H17.125V33.75H50.875V16.875ZM17.125 11.25C15.6332 11.25 14.2024 11.8426 13.1475 12.8975C12.0926 13.9524 11.5 15.3832 11.5 16.875V33.75C11.5 35.2418 12.0926 36.6726 13.1475 37.7275C14.2024 38.7824 15.6332 39.375 17.125 39.375H50.875C52.3668 39.375 53.7976 38.7824 54.8525 37.7275C55.9074 36.6726 56.5 35.2418 56.5 33.75V16.875C56.5 15.3832 55.9074 13.9524 54.8525 12.8975C53.7976 11.8426 52.3668 11.25 50.875 11.25H17.125ZM34 73.125C36.9837 73.125 39.8452 71.9397 41.9549 69.8299C44.0647 67.7202 45.25 64.8587 45.25 61.875C45.25 58.8913 44.0647 56.0298 41.9549 53.9201C39.8452 51.8103 36.9837 50.625 34 50.625C31.0163 50.625 28.1548 51.8103 26.045 53.9201C23.9353 56.0298 22.75 58.8913 22.75 61.875C22.75 64.8587 23.9353 67.7202 26.045 69.8299C28.1548 71.9397 31.0163 73.125 34 73.125ZM50.875 61.875C50.875 66.3505 49.0971 70.6428 45.9324 73.8074C42.7678 76.9721 38.4755 78.75 34 78.75C29.5245 78.75 25.2323 76.9721 22.0676 73.8074C18.9029 70.6428 17.125 66.3505 17.125 61.875C17.125 57.3995 18.9029 53.1072 22.0676 49.9426C25.2323 46.7779 29.5245 45 34 45C38.4755 45 42.7678 46.7779 45.9324 49.9426C49.0971 53.1072 50.875 57.3995 50.875 61.875Z" fill="#FF7D05"/>
<path d="M34 67.5C37.1066 67.5 39.625 64.9816 39.625 61.875C39.625 58.7684 37.1066 56.25 34 56.25C30.8934 56.25 28.375 58.7684 28.375 61.875C28.375 64.9816 30.8934 67.5 34 67.5Z" fill="#FF7D05"/>
</svg>
