<svg width="172" height="31" viewBox="0 0 172 31" fill="none" xmlns="http://www.w3.org/2000/svg">
<path d="M10.0284 30.528C7.82835 30.528 5.98035 30.1027 4.48435 29.252C3.01768 28.4013 1.78568 27.096 0.788351 25.336L5.18835 22.08C5.71635 23.048 6.33235 23.7667 7.03635 24.236C7.74035 24.7053 8.45902 24.94 9.19235 24.94C10.3657 24.94 11.2457 24.588 11.8324 23.884C12.4484 23.1507 12.7564 21.8307 12.7564 19.924V1.312H19.2244V20.452C19.2244 21.8307 19.0337 23.136 18.6524 24.368C18.3004 25.6 17.743 26.6707 16.9804 27.58C16.247 28.4893 15.2937 29.208 14.1204 29.736C12.9764 30.264 11.6124 30.528 10.0284 30.528ZM37.5191 30.528C35.5831 30.528 33.8084 30.1907 32.1951 29.516C30.6111 28.812 29.2471 27.8147 28.1031 26.524C26.9591 25.2333 26.0644 23.664 25.4191 21.816C24.8031 19.968 24.4951 17.8707 24.4951 15.524C24.4951 13.1773 24.8031 11.0947 25.4191 9.276C26.0644 7.428 26.9591 5.888 28.1031 4.656C29.2471 3.39467 30.6111 2.44133 32.1951 1.796C33.8084 1.12133 35.5831 0.783998 37.5191 0.783998C39.4551 0.783998 41.2151 1.12133 42.7991 1.796C44.4124 2.44133 45.7911 3.39467 46.9351 4.656C48.0791 5.91733 48.9591 7.472 49.5751 9.32C50.2204 11.1387 50.5431 13.2067 50.5431 15.524C50.5431 17.8707 50.2204 19.968 49.5751 21.816C48.9591 23.664 48.0791 25.2333 46.9351 26.524C45.7911 27.8147 44.4124 28.812 42.7991 29.516C41.2151 30.1907 39.4551 30.528 37.5191 30.528ZM37.5191 24.94C39.4844 24.94 41.0391 24.104 42.1831 22.432C43.3271 20.7307 43.8991 18.428 43.8991 15.524C43.8991 12.6493 43.3271 10.4053 42.1831 8.792C41.0391 7.17867 39.4844 6.372 37.5191 6.372C35.5537 6.372 33.9991 7.17867 32.8551 8.792C31.7111 10.4053 31.1391 12.6493 31.1391 15.524C31.1391 18.428 31.7111 20.7307 32.8551 22.432C33.9991 24.104 35.5537 24.94 37.5191 24.94ZM55.9372 30V1.312H73.8892V6.768H62.4052V12.532H72.1732V17.944H62.4052V24.544H74.3292V30H55.9372ZM80.0427 30V1.312H86.5107V13.06H86.6867L95.2227 1.312H102.351L93.6827 12.752L103.935 30H96.8507L89.8547 17.9L86.5107 22.3V30H80.0427ZM107.07 30V1.312H113.538V30H107.07ZM120.304 30V1.312H126.948L134.428 15.568L137.244 21.904H137.42C137.274 20.3787 137.098 18.6773 136.892 16.8C136.716 14.9227 136.628 13.1333 136.628 11.432V1.312H142.788V30H136.144L128.664 15.7L125.848 9.452H125.672C125.819 11.036 125.98 12.7373 126.156 14.556C126.362 16.3747 126.464 18.1347 126.464 19.836V30H120.304ZM162.238 30.528C160.273 30.528 158.425 30.22 156.694 29.604C154.993 28.9587 153.511 28.02 152.25 26.788C150.989 25.556 149.991 24.0307 149.258 22.212C148.554 20.364 148.202 18.2373 148.202 15.832C148.202 13.456 148.569 11.344 149.302 9.496C150.035 7.61867 151.033 6.03467 152.294 4.744C153.585 3.45333 155.081 2.47067 156.782 1.796C158.483 1.12133 160.287 0.783998 162.194 0.783998C164.277 0.783998 166.066 1.16533 167.562 1.928C169.058 2.69067 170.275 3.556 171.214 4.524L167.826 8.66C167.093 8.01467 166.315 7.472 165.494 7.032C164.673 6.592 163.646 6.372 162.414 6.372C161.299 6.372 160.273 6.592 159.334 7.032C158.425 7.44267 157.633 8.044 156.958 8.836C156.283 9.628 155.755 10.596 155.374 11.74C155.022 12.884 154.846 14.1747 154.846 15.612C154.846 18.5747 155.506 20.8773 156.826 22.52C158.175 24.1333 160.199 24.94 162.898 24.94C163.485 24.94 164.057 24.8667 164.614 24.72C165.171 24.5733 165.626 24.3533 165.978 24.06V19.132H161.226V13.852H171.698V27.052C170.701 28.02 169.381 28.8413 167.738 29.516C166.095 30.1907 164.262 30.528 162.238 30.528Z" fill="url(#paint0_linear)"/>
<defs>
<linearGradient id="paint0_linear" x1="289.927" y1="6.42836" x2="241.291" y2="-107.38" gradientUnits="userSpaceOnUse">
<stop stop-color="#FF7D05"/>
<stop offset="1" stop-color="#FF7D05"/>
</linearGradient>
</defs>
</svg>
