<svg width="203" height="46" viewBox="0 0 203 46" fill="none" xmlns="http://www.w3.org/2000/svg">
<path d="M4.72656 45.0781C3.08594 45.0781 1.65625 44.9062 0.4375 44.5625V38.5156C1.6875 38.8281 2.82812 38.9844 3.85938 38.9844C5.45312 38.9844 6.59375 38.4844 7.28125 37.4844C7.96875 36.5 8.3125 34.9531 8.3125 32.8438V0.734375H15.5781V32.7969C15.5781 36.7969 14.6641 39.8438 12.8359 41.9375C11.0078 44.0312 8.30469 45.0781 4.72656 45.0781ZM55.3047 17.8203C55.3047 23.4922 53.8984 27.8516 51.0859 30.8984C48.2734 33.9453 44.2422 35.4688 38.9922 35.4688C33.7422 35.4688 29.7109 33.9453 26.8984 30.8984C24.0859 27.8516 22.6797 23.4766 22.6797 17.7734C22.6797 12.0703 24.0859 7.71875 26.8984 4.71875C29.7266 1.70312 33.7734 0.195312 39.0391 0.195312C44.3047 0.195312 48.3281 1.71094 51.1094 4.74219C53.9062 7.77344 55.3047 12.1328 55.3047 17.8203ZM30.2969 17.8203C30.2969 21.6484 31.0234 24.5312 32.4766 26.4688C33.9297 28.4062 36.1016 29.375 38.9922 29.375C44.7891 29.375 47.6875 25.5234 47.6875 17.8203C47.6875 10.1016 44.8047 6.24219 39.0391 6.24219C36.1484 6.24219 33.9688 7.21875 32.5 9.17188C31.0312 11.1094 30.2969 13.9922 30.2969 17.8203ZM82.1406 35H62.4062V0.734375H82.1406V6.6875H69.6719V14.2109H81.2734V20.1641H69.6719V29H82.1406V35ZM116.875 35H108.625L99.6484 20.5625L96.5781 22.7656V35H89.3125V0.734375H96.5781V16.4141L99.4375 12.3828L108.719 0.734375H116.781L104.828 15.8984L116.875 35ZM121.188 35V0.734375H128.453V35H121.188ZM167.477 35H158.242L143.336 9.07812H143.125C143.422 13.6562 143.57 16.9219 143.57 18.875V35H137.078V0.734375H146.242L161.125 26.3984H161.289C161.055 21.9453 160.938 18.7969 160.938 16.9531V0.734375H167.477V35ZM189.133 15.7578H202.727V33.5234C200.523 34.2422 198.445 34.7422 196.492 35.0234C194.555 35.3203 192.57 35.4688 190.539 35.4688C185.367 35.4688 181.414 33.9531 178.68 30.9219C175.961 27.875 174.602 23.5078 174.602 17.8203C174.602 12.2891 176.18 7.97656 179.336 4.88281C182.508 1.78906 186.898 0.242188 192.508 0.242188C196.023 0.242188 199.414 0.945312 202.68 2.35156L200.266 8.16406C197.766 6.91406 195.164 6.28906 192.461 6.28906C189.32 6.28906 186.805 7.34375 184.914 9.45312C183.023 11.5625 182.078 14.3984 182.078 17.9609C182.078 21.6797 182.836 24.5234 184.352 26.4922C185.883 28.4453 188.102 29.4219 191.008 29.4219C192.523 29.4219 194.062 29.2656 195.625 28.9531V21.8047H189.133V15.7578Z" fill="white"/>
</svg>
