<svg width="84" height="68" viewBox="0 0 84 68" fill="none" xmlns="http://www.w3.org/2000/svg">
<path d="M75.75 0.25H8.25C4.125 0.25 0.75 3.625 0.75 7.75V60.25C0.75 64.375 4.125 67.75 8.25 67.75H75.75C79.875 67.75 83.25 64.375 83.25 60.25V7.75C83.25 3.625 79.875 0.25 75.75 0.25ZM72 60.25H12C9.9375 60.25 8.25 58.5625 8.25 56.5V11.5C8.25 9.4375 9.9375 7.75 12 7.75H72C74.0625 7.75 75.75 9.4375 75.75 11.5V56.5C75.75 58.5625 74.0625 60.25 72 60.25ZM27.1875 47.275C26.8873 45.6529 26.9481 43.9846 27.3656 42.3887C27.7831 40.7928 28.5471 39.3084 29.6031 38.0412C30.6592 36.7739 31.9815 35.7548 33.4759 35.0564C34.9704 34.3579 36.6004 33.9972 38.25 34C39.5625 34 40.8375 34.2625 42 34.675V19C42 14.875 45.375 11.5 49.5 11.5H57C59.0625 11.5 60.75 13.1875 60.75 15.25C60.75 17.3125 59.0625 19 57 19H49.5V45.3625C49.4834 47.0051 49.1074 48.6242 48.3983 50.1061C47.6893 51.5879 46.6645 52.8966 45.3958 53.9401C44.1271 54.9837 42.6453 55.7368 41.0545 56.1466C39.4637 56.5565 37.8025 56.6131 36.1875 56.3125C31.65 55.525 27.9375 51.8125 27.1875 47.275Z" fill="#FF7D05"/>
</svg>
