<svg width="34" height="40" viewBox="0 0 34 40" fill="none" xmlns="http://www.w3.org/2000/svg">
<path d="M21.8921 12.4825C23.2834 13.3723 24.3902 14.5964 25.0709 15.9983C25.7516 17.4001 25.9753 18.9159 25.7132 20.3515L21.8921 12.4825ZM24.1633 7.10943C27.1505 8.72905 29.5396 11.1776 30.9381 14.0532C32.3366 16.9287 32.6616 20.0603 31.8595 22.9337L24.1633 7.10943ZM25.7934 33.004L24.09 37.0338C23.9337 37.4086 23.6896 37.7419 23.3734 38.0123C23.0572 38.2827 22.6759 38.4842 22.254 38.6039C21.832 38.7236 21.3787 38.759 20.923 38.7076C20.4674 38.6563 20.0194 38.5194 19.6078 38.3057C15.0737 35.8598 11.1331 32.5293 8.10254 28.5819C5.26508 24.9517 3.28344 20.8707 2.29833 16.6289C1.18513 12.028 1.257 7.35572 2.50813 2.99071C2.62678 2.60303 2.83548 2.24998 3.12094 1.95403C3.4064 1.65808 3.76236 1.42571 4.16617 1.27173C4.56998 1.11774 5.01279 1.0455 5.46639 1.05962C5.92 1.07373 6.37447 1.17389 6.80087 1.35371L11.4063 3.30041C12.1541 3.60891 12.7788 4.14506 13.164 4.80892C13.5492 5.47277 13.6686 6.21904 13.5001 6.90863C13.1493 8.28041 12.9746 9.69903 12.9792 11.1374C12.9825 11.7055 12.8063 12.2469 12.4716 12.6975C12.1368 13.1481 11.6574 13.4889 11.0903 13.6797L8.41959 14.5615C9.18348 18.8482 11.1887 22.9778 14.2238 26.5145L16.8945 25.6327C17.4646 25.448 18.0968 25.4218 18.7161 25.5573C19.3355 25.6929 19.9161 25.9844 20.3892 26.3974C21.5898 27.4409 22.9036 28.368 24.3056 29.1611C25.0124 29.5684 25.5545 30.1849 25.8288 30.8935C26.1032 31.602 26.0906 32.3531 25.7934 33.004Z" stroke="#FF7D05" stroke-width="2" stroke-linecap="round" stroke-linejoin="round"/>
</svg>
